<?xml version="1.0" encoding="UTF-8" standalone="no"?>
<!-- Created with Inkscape (http://www.inkscape.org/) -->

<svg
   xmlns:dc="http://purl.org/dc/elements/1.1/"
   xmlns:cc="http://creativecommons.org/ns#"
   xmlns:rdf="http://www.w3.org/1999/02/22-rdf-syntax-ns#"
   xmlns:svg="http://www.w3.org/2000/svg"
   xmlns="http://www.w3.org/2000/svg"
   xmlns:sodipodi="http://sodipodi.sourceforge.net/DTD/sodipodi-0.dtd"
   xmlns:inkscape="http://www.inkscape.org/namespaces/inkscape"
   width="285.46457"
   height="285.47119"
   id="svg2"
   sodipodi:version="0.32"
   inkscape:version="0.48.4 r9939"
   version="1.0"
   sodipodi:docname="moodle.svg"
   inkscape:output_extension="org.inkscape.output.svg.inkscape">
  <sodipodi:namedview
     id="base"
     pagecolor="#ffffff"
     bordercolor="#666666"
     borderopacity="1.0"
     inkscape:pageopacity="0.0"
     inkscape:pageshadow="2"
     inkscape:zoom="0.70710678"
     inkscape:cx="157.75782"
     inkscape:cy="139.89351"
     inkscape:document-units="px"
     inkscape:current-layer="layer1"
     showgrid="false"
     inkscape:window-width="958"
     inkscape:window-height="1024"
     inkscape:window-x="960"
     inkscape:window-y="30"
     fit-margin-left="1"
     fit-margin-top="1"
     fit-margin-right="1"
     fit-margin-bottom="1"
     inkscape:window-maximized="0" />
  <defs
     id="defs4">
    <linearGradient
       id="linearGradient3203">
      <stop
         style="stop-color:#333333;stop-opacity:1;"
         offset="0"
         id="stop3205" />
      <stop
         style="stop-color:#606060;stop-opacity:1;"
         offset="1"
         id="stop3207" />
    </linearGradient>
    <linearGradient
       id="linearGradient3195">
      <stop
         style="stop-color:#404040;stop-opacity:1;"
         offset="0"
         id="stop3197" />
      <stop
         style="stop-color:#1a1a1a;stop-opacity:1;"
         offset="1"
         id="stop3199" />
    </linearGradient>
    <linearGradient
       id="linearGradient3187">
      <stop
         style="stop-color:#606060;stop-opacity:1;"
         offset="0"
         id="stop3189" />
      <stop
         style="stop-color:#404040;stop-opacity:1;"
         offset="1"
         id="stop3191" />
    </linearGradient>
    <inkscape:perspective
       sodipodi:type="inkscape:persp3d"
       inkscape:vp_x="0 : 526.18109 : 1"
       inkscape:vp_y="0 : 1000 : 0"
       inkscape:vp_z="744.09448 : 526.18109 : 1"
       inkscape:persp3d-origin="372.04724 : 350.78739 : 1"
       id="perspective10" />
    <clipPath
       id="clipPath2472"
       clipPathUnits="userSpaceOnUse">
      <path
         id="path2474"
         d="m 130.32,642 331.92,0 0,11.04 -331.92,0 0,-11.04 z"
         inkscape:connector-curvature="0" />
    </clipPath>
    <inkscape:perspective
       id="perspective2390"
       inkscape:persp3d-origin="372.04724 : 350.78739 : 1"
       inkscape:vp_z="744.09448 : 526.18109 : 1"
       inkscape:vp_y="0 : 1000 : 0"
       inkscape:vp_x="0 : 526.18109 : 1"
       sodipodi:type="inkscape:persp3d" />
    <clipPath
       id="clipPath">
      <path
         id="path3991"
         transform="translate(-0.1900293,428.7894)"
         d="m 519.375,8.375 0,67 c -8.3124,-7.708675 -18.91192,-12.343754 -30.46875,-12.34375 -26.67332,-2e-6 -48.3125,24.61839 -48.3125,54.96875 -10e-6,30.35035 21.63918,54.96876 48.3125,54.96875 11.55683,0 22.15634,-4.63508 30.46875,-12.34375 l 0,9.53125 30.46875,0 0,-161.78125 -30.46875,0 z m 47.46875,0 0,161.78125 30.5,0 0,-161.78125 -30.5,0 z m -298.9375,54.0625 c -30.33618,2e-6 -54.96875,25.12026 -54.96875,56.125 1e-5,31.00475 24.63256,56.15625 54.96875,56.15625 30.33618,1e-5 54.9375,-25.1515 54.9375,-56.15625 -10e-6,-31.004741 -24.60133,-56.125 -54.9375,-56.125 z m 113.71875,0 c -30.33617,2e-6 -54.96875,25.12026 -54.96875,56.125 -2e-5,31.00475 24.63256,56.15625 54.96875,56.15625 30.33619,1e-5 54.9375,-25.1515 54.9375,-56.15625 0,-31.004741 -24.60133,-56.125 -54.9375,-56.125 z m 280.21875,0 c -31.30685,2e-6 -56.75,25.77988 -56.75,57.59375 0,31.81388 25.44315,57.625 56.75,57.625 24.51659,1e-5 45.40735,-15.82396 53.3125,-37.96875 l -31.65625,0 c -4.68373,9.44879 -12.62284,15.6875 -21.65625,15.6875 -12.08775,0 -22.30022,-11.15315 -25.28125,-26.25 l 37.5625,0 0,-1.75 43.9375,0 c 0.3018,-2.40763 0.46875,-4.85303 0.46875,-7.34375 -2e-5,-31.813871 -25.38067,-57.59375 -56.6875,-57.59375 z M 94.875,64.15625 c -30.42409,0.33968 -41.02701,14.55616 -43.1875,34.5 l 0.5,0 0,71.5 30.46875,0 0,-71.5 1.15625,0 C 87.42654,91.67994 92.84159,87.25 98.875,87.25 c 5.91375,0 11.22498,4.261773 14.84375,11 l 0,71.90625 30.5,0 0,-71.5 0.46875,0 C 148.30911,91.679939 153.71659,87.25 159.75,87.25 c 6.03341,10e-7 11.44846,4.42994 15.0625,11.40625 l 1.0625,0 0,71.5 30.46875,0 0,-71.5 0.59375,0 c -2.16049,-19.943838 -12.76341,-34.160324 -43.1875,-34.5 -1.29771,-0.01449 -2.62932,-0.0054 -4,0.03125 -11.61263,10e-7 -22.22994,4.954774 -30.4375,13.15625 C 121.10494,69.142273 110.48762,64.1875 98.875,64.1875 c -1.37068,-0.03664 -2.70229,-0.04574 -4,-0.03125 z M 495.5625,84.1875 c 11.37467,-3e-6 20.94908,10.370131 23.8125,24.4375 l 0,17.53125 c -2.86344,14.06737 -12.43786,24.40625 -23.8125,24.40625 -13.6325,-1e-5 -24.6875,-14.87512 -24.6875,-33.1875 0,-18.312377 11.05498,-33.1875 24.6875,-33.1875 z m 166.28125,0.53125 c 11.46607,2e-6 21.18431,9.99825 24.6875,23.90625 l -49.4375,0 c 3.51938,-13.907998 13.28392,-23.90625 24.75,-23.90625 z m -393.9375,1.125 c 12.71411,-2e-6 23.03125,14.65618 23.03125,32.71875 0,18.06258 -10.31714,32.75 -23.03125,32.75 -12.71412,-1e-5 -23.0625,-14.68742 -23.0625,-32.75 0,-18.06256 10.34839,-32.71875 23.0625,-32.71875 z m 113.71875,0 c 12.71412,-2e-6 23.03125,14.65618 23.03125,32.71875 -2e-5,18.06258 -10.31714,32.75 -23.03125,32.75 -12.71411,-1e-5 -23.03125,-14.68742 -23.03125,-32.75 0,-18.06256 10.31714,-32.71875 23.03125,-32.71875 z"
         style="fill:#fb9c02;fill-opacity:1;stroke:none"
         inkscape:connector-curvature="0" />
    </clipPath>
    <filter
       id="filter"
       height="2"
       width="2"
       x="-0.5"
       y="-0.5"
       color-interpolation-filters="sRGB">
      <feGaussianBlur
         stdDeviation="5.0"
         id="feGaussianBlur4083" />
    </filter>
    <clipPath
       id="clipPathd">
      <path
         sodipodi:nodetypes="ccssscccccccccccsssccsssccssccsccsccccccccscccccsccccccscccccccssccccccsssccsssc"
         transform="translate(-0.1900293,428.7894)"
         style="fill:#fb9c02;fill-opacity:1;stroke:none"
         d="m 519.375,8.375 0,67 c -8.3124,-7.708675 -18.91192,-12.343754 -30.46875,-12.34375 -26.67332,-2e-6 -48.3125,24.61839 -48.3125,54.96875 -10e-6,30.35035 21.63918,54.96876 48.3125,54.96875 11.55683,0 22.15634,-4.63508 30.46875,-12.34375 l 0,9.53125 30.46875,0 0,-161.78125 -30.46875,0 z m 47.46875,0 0,161.78125 30.5,0 0,-161.78125 -30.5,0 z m -298.9375,54.0625 c -30.33618,2e-6 -54.96875,25.12026 -54.96875,56.125 1e-5,31.00475 24.63256,56.15625 54.96875,56.15625 30.33618,1e-5 54.9375,-25.1515 54.9375,-56.15625 -10e-6,-31.004741 -24.60133,-56.125 -54.9375,-56.125 z m 113.71875,0 c -30.33617,2e-6 -54.96875,25.12026 -54.96875,56.125 -2e-5,31.00475 24.63256,56.15625 54.96875,56.15625 30.33619,1e-5 54.9375,-25.1515 54.9375,-56.15625 0,-31.004741 -24.60133,-56.125 -54.9375,-56.125 z m 280.21875,0 c -31.30685,2e-6 -56.75,25.77988 -56.75,57.59375 0,31.81388 25.44315,57.625 56.75,57.625 24.51659,1e-5 45.40735,-15.82396 53.3125,-37.96875 l -31.65625,0 c -4.68373,9.44879 -12.62284,15.6875 -21.65625,15.6875 -12.08775,0 -22.30022,-11.15315 -25.28125,-26.25 l 80.9138,-0.5776 c 0.3018,-2.40763 1.05495,-6.02543 1.05495,-8.51615 -2e-5,-31.813871 -25.38067,-57.59375 -56.6875,-57.59375 z M 94.875,64.15625 c -30.42409,0.33968 -41.02701,14.55616 -43.1875,34.5 l 0.5,0 0,71.5 30.46875,0 0,-71.5 1.15625,0 C 87.42654,91.67994 92.84159,87.25 98.875,87.25 c 5.91375,0 11.22498,4.261773 14.84375,11 l 0,71.90625 30.5,0 0,-71.5 0.46875,0 C 148.30911,91.679939 153.71659,87.25 159.75,87.25 c 6.03341,10e-7 11.44846,4.42994 15.0625,11.40625 l 1.0625,0 0,71.5 30.46875,0 0,-71.5 0.59375,0 c -2.16049,-19.943838 -12.76341,-34.160324 -43.1875,-34.5 -1.29771,-0.01449 -2.62932,-0.0054 -4,0.03125 -11.61263,10e-7 -22.22994,4.954774 -30.4375,13.15625 C 121.10494,69.142273 110.48762,64.1875 98.875,64.1875 c -1.37068,-0.03664 -2.70229,-0.04574 -4,-0.03125 z M 495.5625,84.1875 c 11.37467,-3e-6 20.94908,10.370131 23.8125,24.4375 l 0,17.53125 c -2.86344,14.06737 -12.43786,24.40625 -23.8125,24.40625 -13.6325,-1e-5 -24.6875,-14.87512 -24.6875,-33.1875 0,-18.312377 11.05498,-33.1875 24.6875,-33.1875 z m 166.28125,0.53125 c 11.46607,2e-6 21.18431,9.99825 24.6875,23.90625 l -49.4375,0 c 3.51938,-13.907998 13.28392,-23.90625 24.75,-23.90625 z m -393.9375,1.125 c 12.71411,-2e-6 23.03125,14.65618 23.03125,32.71875 0,18.06258 -10.31714,32.75 -23.03125,32.75 -12.71412,-1e-5 -23.0625,-14.68742 -23.0625,-32.75 0,-18.06256 10.34839,-32.71875 23.0625,-32.71875 z m 113.71875,0 c 12.71412,-2e-6 23.03125,14.65618 23.03125,32.71875 -2e-5,18.06258 -10.31714,32.75 -23.03125,32.75 -12.71411,-1e-5 -23.03125,-14.68742 -23.03125,-32.75 0,-18.06256 10.31714,-32.71875 23.03125,-32.71875 z"
         id="path2586"
         inkscape:connector-curvature="0" />
    </clipPath>
    <filter
       y="-0.5"
       x="-0.5"
       width="2"
       height="2"
       id="filterK"
       color-interpolation-filters="sRGB">
      <feGaussianBlur
         id="feGaussianBlur4147"
         stdDeviation="5.0" />
    </filter>
  </defs>
  <metadata
     id="metadata7">
    <rdf:RDF>
      <cc:Work
         rdf:about="">
        <dc:format>image/svg+xml</dc:format>
        <dc:type
           rdf:resource="http://purl.org/dc/dcmitype/StillImage" />
        <dc:title></dc:title>
      </cc:Work>
    </rdf:RDF>
  </metadata>
  <g
     inkscape:label="Ebene 1"
     inkscape:groupmode="layer"
     id="layer1"
     transform="translate(156.46015,-333.53947)">
    <path
       sodipodi:type="arc"
       style="fill:#000000;fill-opacity:1"
       id="path3811"
       sodipodi:cx="84.75"
       sodipodi:cy="92.033386"
       sodipodi:rx="69"
       sodipodi:ry="72.5"
       d="m 153.75,92.033386 c 0,40.040644 -30.89235,72.500004 -69,72.500004 -38.107648,0 -69,-32.45936 -69,-72.500004 0,-40.040644 30.892352,-72.5 69,-72.5 38.10765,0 69,32.459356 69,72.5 z"
       transform="matrix(2.054091,0,0,1.9549738,-187.81208,296.35221)" />
    <path
       d="m 19.013455,418.80132 c 0,30.867 -15.2997151,37.46788 -15.2997151,37.46788 0,0 37.1165731,33.90725 37.1165731,74.95381 0,33.75294 -18.729009,58.81525 -54.822872,58.81525 -36.093862,0 -60.304179,-23.95752 -60.67518,-58.81689 -0.490839,-46.05345 37.916035,-75.18364 37.916035,-75.18364 l 7.943705,14.71367 c 0,0 -9.4983,37.26759 8.359027,35.85582 15.0715311,-1.1836 -4.558723,-31.63855 -4.558723,-31.63855 -7.218115,-13.35935 -23.346838,-30.52064 -23.346838,-56.17884 -0.0016,-30.33513 30.052774,-58.22099 33.537891,-58.22099 3.485117,0 33.830097,22.44067 33.830097,58.23248 z m -24.7356325,25.1329 c 0,0 7.2263238,-27.15863 -5.9885575,-23.45682 -7.339593,2.05527 -0.0033,14.37713 -0.0033,14.37713 l 5.9918407,9.07969 z"
       id="path78"
       inkscape:connector-curvature="0"
       style="fill:#ffffff;fill-opacity:1" />
    <path
       d="m -17.216661,403.12732 c 0,0 3.053376,-1.07361 3.053376,2.67745 0,2.8252 0,4.01536 0,4.01536 0,0 0.06566,1.10972 -1.950221,2.27526 -2.726698,1.57758 -12.536899,9.38174 -11.684909,19.10658 0.719021,8.2277 8.171885,20.55447 23.5224877,38.13436 14.9106523,17.07593 40.1305503,54.90824 39.4115293,72.53902 -0.643507,15.76429 -6.717421,24.39254 -17.638989,31.67467 -7.8714717,5.25149 -12.6895675,4.78691 -12.6895675,4.78691 0,0 -3.24216,-0.25116 -0.8109504,-2.9992 2.4312096,-2.75296 10.5702619,-11.60119 10.1237469,-28.10748 -0.480989,-17.84583 -27.754532,-60.0054 -27.754532,-60.0054 0,0 -26.725251,-39.48541 -26.725251,-53.31424 0.0016,-23.09732 23.14328,-30.78329 23.14328,-30.78329 z"
       id="path91"
       style="fill:#000000;fill-opacity:1"
       inkscape:connector-curvature="0" />
    <path
       d="m -11.249445,420.21802 c 0,0 -9.976003,0.12805 5.7144105,23.46339 0,0 -2.5149325,6.69773 -6.6829545,11.15795 -5.067619,5.42221 6.4137315,4.21564 9.1158057,3.79539 4.04818555,-0.63202 7.0966368,-2.57567 7.0966368,-2.57567 8.2884385,8.18994 10.8148605,11.35494 20.7317695,26.1359 0,0 -12.490938,-17.55362 -25.43987836,-21.16679 -3.98580474,-1.113 -13.18369064,1.77786 -14.62337364,-1.07524 -1.439683,-2.8531 5.5436824,-7.6121 6.7223516,-9.92019 0.9143712,-1.79755 -13.9289756,-27.76274 -2.6347676,-29.81474 z"
       id="path93"
       inkscape:connector-curvature="0"
       style="fill:#ffffff;fill-opacity:1" />
    <path
       d="m 17.394834,420.92063 c 0,16.99712 -6.715786,32.16879 -16.61135015,35.87552 -4.22055355,1.58086 -11.62745385,2.16035 -11.54373185,0.21833 0.160876,-3.71986 4.9641985,1.3494 10.50459904,-3.45721 C 4.3096407,449.59774 9.4429237,438.77631 8.3020119,424.7866 6.5175927,402.91228 -6.7711599,394.28074 -8.9397142,392.71958 c -1.8024768,-1.29687 -4.5193248,-1.45282 -4.8574938,-4.89854 -0.546653,-5.58308 -1.172103,-16.32242 -1.172103,-16.32242 0,0 -0.413683,-5.84739 4.149965,-2.92534 4.5636485,2.92369 28.21418,18.64201 28.21418,52.34735 z"
       id="path106"
       style="fill:#000000;fill-opacity:1"
       inkscape:connector-curvature="0" />
    <path
       d="m -34.817899,460.79837 c 0,0 0.100137,0.58113 2.35734,2.51658 l 2.101248,3.83806 c 0,0 1.052266,1.13926 0.617242,2.03229 -1.154045,2.37376 -21.705238,58.41306 11.560147,56.18376 0,0 5.784998,-0.44651 9.1617694,-5.35489 1.6563751,-2.41151 3.6689773,-4.84928 4.7442253,-0.023 1.2032928,5.41235 12.7946304,37.72889 -9.3571207,56.01304 -17.563479,14.50189 -65.713251,-10.73115 -21.184851,-115.20586 z"
       id="path119"
       style="fill:#000000;fill-opacity:1"
       inkscape:connector-curvature="0" />
    <path
       d="m -23.366095,477.60015 c 0,0 33.963063,50.30191 34.429278,68.22818 0.648432,25.04917 -18.5599308,37.31028 -32.135963,38.87965 7.71552,-0.89303 20.73176784,-15.6149 23.3829519,-33.68399 4.0596768,-27.65931 -25.6762669,-73.42384 -25.6762669,-73.42384 z"
       id="path121"
       inkscape:connector-curvature="0"
       style="fill:#ffffff;fill-opacity:1" />
    <path
       d="m -23.267599,477.69043 c 0,0 17.7588301,28.9726 1.961712,28.60324 -15.79712,-0.36607 -8.439465,-31.99314 -7.503753,-35.54227 0,0 -12.03129,37.66487 -1.424909,47.03184 9.22415,8.15218 18.911232,3.50317 20.7284824,-3.56885 1.823818,-7.06872 3.0156203,-10.91171 -13.7615324,-36.52396 z"
       id="path123"
       inkscape:connector-curvature="0"
       style="fill:#ffffff;fill-opacity:1" />
    <polygon
       points="28.371,66.584 23.1,58.156 23.1,58.156 27.149,70.56 "
       id="polygon125"
       transform="matrix(1.6416,0,0,1.6416,-74.672664,360.56884)"
       style="fill:#ffffff;fill-opacity:1" />
  </g>
</svg>
