<?xml version="1.0" encoding="UTF-8" standalone="no"?>
<!-- Created with Inkscape (http://www.inkscape.org/) -->

<svg
   xmlns:dc="http://purl.org/dc/elements/1.1/"
   xmlns:cc="http://creativecommons.org/ns#"
   xmlns:rdf="http://www.w3.org/1999/02/22-rdf-syntax-ns#"
   xmlns:svg="http://www.w3.org/2000/svg"
   xmlns="http://www.w3.org/2000/svg"
   xmlns:sodipodi="http://sodipodi.sourceforge.net/DTD/sodipodi-0.dtd"
   xmlns:inkscape="http://www.inkscape.org/namespaces/inkscape"
   width="285.46457"
   height="285.47119"
   id="svg2"
   sodipodi:version="0.32"
   inkscape:version="0.48.4 r9939"
   version="1.0"
   sodipodi:docname="Moodle-logo.svg"
   inkscape:output_extension="org.inkscape.output.svg.inkscape">
  <sodipodi:namedview
     id="base"
     pagecolor="#ffffff"
     bordercolor="#666666"
     borderopacity="1.0"
     inkscape:pageopacity="0.0"
     inkscape:pageshadow="2"
     inkscape:zoom="0.35355339"
     inkscape:cx="17.861081"
     inkscape:cy="139.89351"
     inkscape:document-units="px"
     inkscape:current-layer="layer1"
     showgrid="false"
     inkscape:window-width="1920"
     inkscape:window-height="1021"
     inkscape:window-x="0"
     inkscape:window-y="37"
     fit-margin-left="1"
     fit-margin-top="1"
     fit-margin-right="1"
     fit-margin-bottom="1"
     inkscape:window-maximized="1" />
  <defs
     id="defs4">
    <linearGradient
       id="linearGradient3203">
      <stop
         style="stop-color:#333333;stop-opacity:1;"
         offset="0"
         id="stop3205" />
      <stop
         style="stop-color:#606060;stop-opacity:1;"
         offset="1"
         id="stop3207" />
    </linearGradient>
    <linearGradient
       id="linearGradient3195">
      <stop
         style="stop-color:#404040;stop-opacity:1;"
         offset="0"
         id="stop3197" />
      <stop
         style="stop-color:#1a1a1a;stop-opacity:1;"
         offset="1"
         id="stop3199" />
    </linearGradient>
    <linearGradient
       id="linearGradient3187">
      <stop
         style="stop-color:#606060;stop-opacity:1;"
         offset="0"
         id="stop3189" />
      <stop
         style="stop-color:#404040;stop-opacity:1;"
         offset="1"
         id="stop3191" />
    </linearGradient>
    <inkscape:perspective
       sodipodi:type="inkscape:persp3d"
       inkscape:vp_x="0 : 526.18109 : 1"
       inkscape:vp_y="0 : 1000 : 0"
       inkscape:vp_z="744.09448 : 526.18109 : 1"
       inkscape:persp3d-origin="372.04724 : 350.78739 : 1"
       id="perspective10" />
    <clipPath
       id="clipPath2472"
       clipPathUnits="userSpaceOnUse">
      <path
         id="path2474"
         d="m 130.32,642 331.92,0 0,11.04 -331.92,0 0,-11.04 z"
         inkscape:connector-curvature="0" />
    </clipPath>
    <inkscape:perspective
       id="perspective2390"
       inkscape:persp3d-origin="372.04724 : 350.78739 : 1"
       inkscape:vp_z="744.09448 : 526.18109 : 1"
       inkscape:vp_y="0 : 1000 : 0"
       inkscape:vp_x="0 : 526.18109 : 1"
       sodipodi:type="inkscape:persp3d" />
    <clipPath
       id="clipPath">
      <path
         id="path3991"
         transform="translate(-0.1900293,428.7894)"
         d="m 519.375,8.375 0,67 c -8.3124,-7.708675 -18.91192,-12.343754 -30.46875,-12.34375 -26.67332,-2e-6 -48.3125,24.61839 -48.3125,54.96875 -10e-6,30.35035 21.63918,54.96876 48.3125,54.96875 11.55683,0 22.15634,-4.63508 30.46875,-12.34375 l 0,9.53125 30.46875,0 0,-161.78125 -30.46875,0 z m 47.46875,0 0,161.78125 30.5,0 0,-161.78125 -30.5,0 z m -298.9375,54.0625 c -30.33618,2e-6 -54.96875,25.12026 -54.96875,56.125 1e-5,31.00475 24.63256,56.15625 54.96875,56.15625 30.33618,1e-5 54.9375,-25.1515 54.9375,-56.15625 -10e-6,-31.004741 -24.60133,-56.125 -54.9375,-56.125 z m 113.71875,0 c -30.33617,2e-6 -54.96875,25.12026 -54.96875,56.125 -2e-5,31.00475 24.63256,56.15625 54.96875,56.15625 30.33619,1e-5 54.9375,-25.1515 54.9375,-56.15625 0,-31.004741 -24.60133,-56.125 -54.9375,-56.125 z m 280.21875,0 c -31.30685,2e-6 -56.75,25.77988 -56.75,57.59375 0,31.81388 25.44315,57.625 56.75,57.625 24.51659,1e-5 45.40735,-15.82396 53.3125,-37.96875 l -31.65625,0 c -4.68373,9.44879 -12.62284,15.6875 -21.65625,15.6875 -12.08775,0 -22.30022,-11.15315 -25.28125,-26.25 l 37.5625,0 0,-1.75 43.9375,0 c 0.3018,-2.40763 0.46875,-4.85303 0.46875,-7.34375 -2e-5,-31.813871 -25.38067,-57.59375 -56.6875,-57.59375 z M 94.875,64.15625 c -30.42409,0.33968 -41.02701,14.55616 -43.1875,34.5 l 0.5,0 0,71.5 30.46875,0 0,-71.5 1.15625,0 C 87.42654,91.67994 92.84159,87.25 98.875,87.25 c 5.91375,0 11.22498,4.261773 14.84375,11 l 0,71.90625 30.5,0 0,-71.5 0.46875,0 C 148.30911,91.679939 153.71659,87.25 159.75,87.25 c 6.03341,10e-7 11.44846,4.42994 15.0625,11.40625 l 1.0625,0 0,71.5 30.46875,0 0,-71.5 0.59375,0 c -2.16049,-19.943838 -12.76341,-34.160324 -43.1875,-34.5 -1.29771,-0.01449 -2.62932,-0.0054 -4,0.03125 -11.61263,10e-7 -22.22994,4.954774 -30.4375,13.15625 C 121.10494,69.142273 110.48762,64.1875 98.875,64.1875 c -1.37068,-0.03664 -2.70229,-0.04574 -4,-0.03125 z M 495.5625,84.1875 c 11.37467,-3e-6 20.94908,10.370131 23.8125,24.4375 l 0,17.53125 c -2.86344,14.06737 -12.43786,24.40625 -23.8125,24.40625 -13.6325,-1e-5 -24.6875,-14.87512 -24.6875,-33.1875 0,-18.312377 11.05498,-33.1875 24.6875,-33.1875 z m 166.28125,0.53125 c 11.46607,2e-6 21.18431,9.99825 24.6875,23.90625 l -49.4375,0 c 3.51938,-13.907998 13.28392,-23.90625 24.75,-23.90625 z m -393.9375,1.125 c 12.71411,-2e-6 23.03125,14.65618 23.03125,32.71875 0,18.06258 -10.31714,32.75 -23.03125,32.75 -12.71412,-1e-5 -23.0625,-14.68742 -23.0625,-32.75 0,-18.06256 10.34839,-32.71875 23.0625,-32.71875 z m 113.71875,0 c 12.71412,-2e-6 23.03125,14.65618 23.03125,32.71875 -2e-5,18.06258 -10.31714,32.75 -23.03125,32.75 -12.71411,-1e-5 -23.03125,-14.68742 -23.03125,-32.75 0,-18.06256 10.31714,-32.71875 23.03125,-32.71875 z"
         style="fill:#fb9c02;fill-opacity:1;stroke:none"
         inkscape:connector-curvature="0" />
    </clipPath>
    <filter
       id="filter"
       height="2"
       width="2"
       x="-0.5"
       y="-0.5"
       color-interpolation-filters="sRGB">
      <feGaussianBlur
         stdDeviation="5.0"
         id="feGaussianBlur4083" />
    </filter>
    <clipPath
       id="clipPathd">
      <path
         sodipodi:nodetypes="ccssscccccccccccsssccsssccssccsccsccccccccscccccsccccccscccccccssccccccsssccsssc"
         transform="translate(-0.1900293,428.7894)"
         style="fill:#fb9c02;fill-opacity:1;stroke:none"
         d="m 519.375,8.375 0,67 c -8.3124,-7.708675 -18.91192,-12.343754 -30.46875,-12.34375 -26.67332,-2e-6 -48.3125,24.61839 -48.3125,54.96875 -10e-6,30.35035 21.63918,54.96876 48.3125,54.96875 11.55683,0 22.15634,-4.63508 30.46875,-12.34375 l 0,9.53125 30.46875,0 0,-161.78125 -30.46875,0 z m 47.46875,0 0,161.78125 30.5,0 0,-161.78125 -30.5,0 z m -298.9375,54.0625 c -30.33618,2e-6 -54.96875,25.12026 -54.96875,56.125 1e-5,31.00475 24.63256,56.15625 54.96875,56.15625 30.33618,1e-5 54.9375,-25.1515 54.9375,-56.15625 -10e-6,-31.004741 -24.60133,-56.125 -54.9375,-56.125 z m 113.71875,0 c -30.33617,2e-6 -54.96875,25.12026 -54.96875,56.125 -2e-5,31.00475 24.63256,56.15625 54.96875,56.15625 30.33619,1e-5 54.9375,-25.1515 54.9375,-56.15625 0,-31.004741 -24.60133,-56.125 -54.9375,-56.125 z m 280.21875,0 c -31.30685,2e-6 -56.75,25.77988 -56.75,57.59375 0,31.81388 25.44315,57.625 56.75,57.625 24.51659,1e-5 45.40735,-15.82396 53.3125,-37.96875 l -31.65625,0 c -4.68373,9.44879 -12.62284,15.6875 -21.65625,15.6875 -12.08775,0 -22.30022,-11.15315 -25.28125,-26.25 l 80.9138,-0.5776 c 0.3018,-2.40763 1.05495,-6.02543 1.05495,-8.51615 -2e-5,-31.813871 -25.38067,-57.59375 -56.6875,-57.59375 z M 94.875,64.15625 c -30.42409,0.33968 -41.02701,14.55616 -43.1875,34.5 l 0.5,0 0,71.5 30.46875,0 0,-71.5 1.15625,0 C 87.42654,91.67994 92.84159,87.25 98.875,87.25 c 5.91375,0 11.22498,4.261773 14.84375,11 l 0,71.90625 30.5,0 0,-71.5 0.46875,0 C 148.30911,91.679939 153.71659,87.25 159.75,87.25 c 6.03341,10e-7 11.44846,4.42994 15.0625,11.40625 l 1.0625,0 0,71.5 30.46875,0 0,-71.5 0.59375,0 c -2.16049,-19.943838 -12.76341,-34.160324 -43.1875,-34.5 -1.29771,-0.01449 -2.62932,-0.0054 -4,0.03125 -11.61263,10e-7 -22.22994,4.954774 -30.4375,13.15625 C 121.10494,69.142273 110.48762,64.1875 98.875,64.1875 c -1.37068,-0.03664 -2.70229,-0.04574 -4,-0.03125 z M 495.5625,84.1875 c 11.37467,-3e-6 20.94908,10.370131 23.8125,24.4375 l 0,17.53125 c -2.86344,14.06737 -12.43786,24.40625 -23.8125,24.40625 -13.6325,-1e-5 -24.6875,-14.87512 -24.6875,-33.1875 0,-18.312377 11.05498,-33.1875 24.6875,-33.1875 z m 166.28125,0.53125 c 11.46607,2e-6 21.18431,9.99825 24.6875,23.90625 l -49.4375,0 c 3.51938,-13.907998 13.28392,-23.90625 24.75,-23.90625 z m -393.9375,1.125 c 12.71411,-2e-6 23.03125,14.65618 23.03125,32.71875 0,18.06258 -10.31714,32.75 -23.03125,32.75 -12.71412,-1e-5 -23.0625,-14.68742 -23.0625,-32.75 0,-18.06256 10.34839,-32.71875 23.0625,-32.71875 z m 113.71875,0 c 12.71412,-2e-6 23.03125,14.65618 23.03125,32.71875 -2e-5,18.06258 -10.31714,32.75 -23.03125,32.75 -12.71411,-1e-5 -23.03125,-14.68742 -23.03125,-32.75 0,-18.06256 10.31714,-32.71875 23.03125,-32.71875 z"
         id="path2586"
         inkscape:connector-curvature="0" />
    </clipPath>
    <filter
       y="-0.5"
       x="-0.5"
       width="2"
       height="2"
       id="filterK"
       color-interpolation-filters="sRGB">
      <feGaussianBlur
         id="feGaussianBlur4147"
         stdDeviation="5.0" />
    </filter>
  </defs>
  <metadata
     id="metadata7">
    <rdf:RDF>
      <cc:Work
         rdf:about="">
        <dc:format>image/svg+xml</dc:format>
        <dc:type
           rdf:resource="http://purl.org/dc/dcmitype/StillImage" />
        <dc:title></dc:title>
      </cc:Work>
    </rdf:RDF>
  </metadata>
  <g
     inkscape:label="Ebene 1"
     inkscape:groupmode="layer"
     id="layer1"
     transform="translate(156.46015,-333.53947)">
    <path
       sodipodi:type="arc"
       style="fill:#000000;fill-opacity:1"
       id="path3811"
       sodipodi:cx="84.75"
       sodipodi:cy="92.033386"
       sodipodi:rx="69"
       sodipodi:ry="72.5"
       d="m 153.75,92.033386 c 0,40.040644 -30.89235,72.500004 -69,72.500004 -38.107648,0 -69,-32.45936 -69,-72.500004 0,-40.040644 30.892352,-72.5 69,-72.5 38.10765,0 69,32.459356 69,72.5 z"
       transform="matrix(2.054091,0,0,1.9549738,-187.81208,296.35221)" />
    <path
       style="fill:#ffffff;fill-opacity:1;stroke:none"
       d="m -36.129781,434.96289 c -30.42409,0.33968 -41.02701,14.55616 -43.1875,34.5 l -1.3e-4,9.5e-4 0.50013,71.49905 30.46875,0 1.15476,-71.50094 10e-4,9.5e-4 c 3.61403,-6.97632 9.02908,-11.40626 15.06249,-11.40626 5.91375,0 11.224979,4.26177 14.843749,11 l 0,71.90625 30.5,0 0.46632,-71.5 0.002,0 c 3.622041,-6.97631 9.029521,-11.40625 15.062931,-11.40625 6.03341,0 11.44846,4.42994 15.0625,11.40625 l -0.005,-0.006 1.06712,71.50648 30.46875,0 0.5862,-71.5 0.008,0 c -2.16049,-19.94384 -12.76341,-34.16033 -43.1875,-34.5 -1.29771,-0.0145 -2.62932,-0.005 -4,0.0312 -11.61263,0 -22.2299407,4.95477 -30.4375007,13.15625 -8.2076303,-8.20146 -18.8249503,-13.15623 -30.4375693,-13.15623 -1.37068,-0.0366 -2.70229,-0.0457 -4,-0.0312 z"
       id="path3031"
       inkscape:connector-curvature="0" />
    <path
       style="fill:#000000;fill-opacity:1;fill-rule:evenodd;stroke:#ffffff;stroke-width:5;stroke-miterlimit:4;stroke-opacity:1;stroke-dasharray:none;stroke-linejoin:round"
       d="m -120.57753,439.68747 72.507924,-1.19848 55.1299923,-39.54978 -71.9086823,6.59163 -55.729234,34.15663 z"
       id="path3420"
       inkscape:connector-curvature="0" />
    <path
       style="fill:#ffffff;fill-opacity:1;stroke:none"
       id="path3428"
       d="m -65.901896,422.83026 c -1.90209,0.96165 -3.81324,1.93563 -5.5614,3.16025 -0.27051,0.18445 -0.54928,0.35734 -0.81155,0.55335 -0.87568,0.65445 -0.38502,0.39743 -1.22884,0.98201 -0.4986,0.34542 -1.05253,0.55855 -1.56915,0.87162 -1.02722,0.61171 -2.14705,1.02629 -3.22967,1.52387 -1.20688,0.3873 -2.31229,0.99186 -3.45401,1.5287 -1.119015,0.50739 -2.250705,0.90051 -3.462645,1.11125 -1.09871,0.38133 -2.2324,0.64061 -3.31876,1.05731 -1.25683,0.45937 -2.54591,0.83162 -3.7956,1.30897 -1.27901,0.39837 -2.399318,1.15534 -3.583168,1.76253 -1.03869,0.47031 -2.17578,0.74983 -3.17679,1.29745 -0.81048,0.40204 -1.693351,0.6954 -2.456871,1.18321 -0.5152,0.2811 -1.1115,0.37859 -1.45665,0.90079 -0.0768,0.11619 -0.25631,0.49429 -0.18494,0.37468 0.92629,-1.55236 1.83356,-3.11598 2.75035,-4.67397 -0.41814,1.00899 -0.40905,2.12295 -0.43144,3.19754 -0.0635,1.06588 0.24465,2.0973 0.40841,3.14103 0.19125,1.08273 0.17607,2.14637 -0.0214,3.22202 -0.41786,3.21607 -1.89671,4.74337 -3.77558,7.97808 -0.65118,0.55113 -1.51104,0.24859 -2.1248,-0.22042 -1.50817,-1.95409 -0.46706,-0.85226 3.24861,-5.20322 0.0767,-0.0898 0.16471,0.16918 0.24873,0.25211 0.21454,0.21177 0.30096,0.28442 0.53809,0.49875 0.68421,0.65673 1.29936,1.26569 1.51742,2.20986 0.16886,1.18346 -0.13719,2.3546 -0.32327,3.51706 -0.22537,1.16468 -0.24972,2.30872 -0.0608,3.47417 0.20714,1.09957 0.28082,2.21564 0.32567,3.33156 0.006,1.15911 -0.29287,2.26613 -0.65241,3.35553 -0.40257,0.90558 -0.76744,1.79386 -0.94964,2.77206 -0.22696,1.05321 -0.0788,2.01815 0.27533,3.01459 0.43364,0.84399 0.83997,1.70693 1.38994,2.48322 0.60693,0.72173 1.138351,1.47037 1.581861,2.30463 0.53941,0.98457 0.53216,1.99866 0.42204,3.07664 -0.13546,1.11498 -0.18534,2.23696 -0.21614,3.35886 -0.076,1.05855 0.22089,2.08604 0.37881,3.12362 0.0818,1.06406 0.1877,2.10652 0.41927,3.14863 0.228,1.07353 0.34706,2.17112 0.31721,3.26822 -0.42916,2.71071 -1.65445,6.71894 -4.676251,6.67213 -0.49849,-0.0716 -0.99696,-0.0799 -1.22168,0.44801 -0.0487,0.11438 -0.1711,0.46359 -0.10652,0.35738 0.94538,-1.55476 1.83655,-3.14183 2.75483,-4.71275 -0.3662,0.94977 -0.149,1.88746 0.0207,2.84769 0.1964,1.12755 0.24376,2.27227 0.27606,3.41398 -0.0327,1.11198 0.0302,2.19548 0.24749,3.28485 0.14839,1.01617 0.31068,2.01545 0.56595,3.01043 0.218531,0.92484 0.514101,1.83394 0.810061,2.73731 0.48101,0.73968 0.314,1.61495 0.53206,2.3954 0.42066,1.12937 0.62833,2.30989 0.75429,3.50321 0.10778,1.22644 0.15091,2.45212 -0.0217,3.67269 l -3.554461,4.7301 c 0.21979,-1.19284 0.25762,-2.37203 0.14227,-3.58435 -0.0898,-1.15855 -0.23248,-2.31849 -0.65018,-3.41192 -0.12184,-0.3136 -0.37686,-0.59413 -0.39158,-0.93024 -0.004,-0.0892 0.15297,-0.11336 0.17967,-0.19852 0.1315,-0.4194 -0.19589,-0.87426 -0.30399,-1.25296 -0.37149,-0.88705 -0.58451,-1.86266 -0.86445,-2.77874 -0.24303,-1.00693 -0.51331,-1.98759 -0.58727,-3.02747 -0.22556,-1.11642 -0.42025,-2.20409 -0.32609,-3.35296 -0.0207,-1.12076 -0.0464,-2.24512 -0.21093,-3.35594 -0.16694,-1.00521 -0.49493,-1.98984 -0.26362,-3.01388 1.00965,-1.84125 1.99052,-3.69858 3.02895,-5.52376 0.3645,-0.64066 1.23653,-0.57738 1.853731,-0.57308 0.26098,-0.048 0.3583,-0.0301 0.56831,-0.20413 0.10025,-0.0831 0.32806,-0.40033 0.26627,-0.28574 -5.108191,9.47445 -2.823001,5.74538 -2.356701,3.89315 0.19778,-1.03999 -0.01,-2.11965 -0.16357,-3.15659 -0.22849,-1.05666 -0.45637,-2.08776 -0.45492,-3.17787 -0.13413,-1.06643 -0.4647,-2.10915 -0.45205,-3.18495 0.02,-1.12813 0.048,-2.25767 0.16943,-3.38036 0.11287,-0.99076 0.33052,-1.94102 -0.14003,-2.88159 -0.40051,-0.82568 -0.90332,-1.54939 -1.49981,-2.24147 -0.6278,-0.79399 -1.00938,-1.72394 -1.52928,-2.5875 -0.39719,-1.04826 -0.73743,-2.04364 -0.51838,-3.18602 0.1173,-0.99872 0.31077,-1.97245 0.8758,-2.82718 0.32341,-1.07469 0.74986,-2.10151 0.81772,-3.24087 -0.0303,-1.09662 -0.0736,-2.19645 -0.26495,-3.27913 -0.21596,-1.20939 -0.34004,-2.37773 -0.0813,-3.60074 0.16309,-1.12788 0.47475,-2.2425 0.44418,-3.38578 -0.0409,-0.90603 -0.52366,-1.37317 -1.16401,-1.9838 -0.0405,-0.0345 -0.8071,-0.62192 -0.75717,-0.70807 0.14058,-0.24255 5.13681,-5.50558 2.86869,-5.02854 0.42278,0.45582 0.9251,0.29703 1.20931,-0.19743 -4.85903,8.59449 -2.21879,4.79424 -1.96051,2.27537 0.20581,-1.04468 0.4036,-2.03972 0.18196,-3.10988 -0.13864,-1.07287 -0.4775,-2.11824 -0.47915,-3.20053 0.007,-1.11183 -0.004,-2.23683 0.2296,-3.32944 2.74424,-4.84054 1.77897,-5.04099 5.004271,-6.67336 0.82648,-0.39421 1.6485,-0.79492 2.48681,-1.16355 1.04656,-0.43341 2.11803,-0.80905 3.145698,-1.28532 1.18791,-0.64005 2.35838,-1.33483 3.65701,-1.73184 1.26391,-0.43733 2.53392,-0.85684 3.79391,-1.30552 1.1214,-0.38683 2.25983,-0.72866 3.40786,-1.02679 1.160365,-0.24738 2.251195,-0.67482 3.324735,-1.17784 1.13108,-0.55949 2.2842,-1.05497 3.46173,-1.50824 1.08517,-0.47885 2.16304,-0.96754 3.18869,-1.56718 1.26322,-0.67147 2.36177,-1.55276 3.53995,-2.36009 1.82172,-1.17715 3.74652,-2.18446 5.6619,-3.19963 l -2.44552,5.40528 z"
       inkscape:connector-curvature="0" />
    <path
       style="fill:#000000;fill-opacity:1;stroke:#ffffff;stroke-width:5;stroke-linecap:butt;stroke-linejoin:miter;stroke-miterlimit:4;stroke-opacity:1;stroke-dasharray:none"
       d="m -75.764866,440.19725 28.60094,-0.51813 22.279709,-15.95849 13.05695,16.06212 -24.97401,31.39885 -42.694149,-11.60618 z"
       id="path3811-9"
       inkscape:connector-curvature="0" />
  </g>
</svg>
