<?xml version="1.0" encoding="UTF-8" standalone="no"?>
<!-- Created with Inkscape (http://www.inkscape.org/) -->

<svg
   xmlns:dc="http://purl.org/dc/elements/1.1/"
   xmlns:cc="http://creativecommons.org/ns#"
   xmlns:rdf="http://www.w3.org/1999/02/22-rdf-syntax-ns#"
   xmlns:svg="http://www.w3.org/2000/svg"
   xmlns="http://www.w3.org/2000/svg"
   xmlns:sodipodi="http://sodipodi.sourceforge.net/DTD/sodipodi-0.dtd"
   xmlns:inkscape="http://www.inkscape.org/namespaces/inkscape"
   width="304.49554"
   height="304.50259"
   id="svg2"
   sodipodi:version="0.32"
   inkscape:version="0.92.1 r"
   version="1.0"
   sodipodi:docname="moodle.svg"
   inkscape:output_extension="org.inkscape.output.svg.inkscape"
   inkscape:export-filename="/home/christian/develop/icon_circle/moodle.png"
   inkscape:export-xdpi="96"
   inkscape:export-ydpi="96">
  <title
     id="title6025">Moodle</title>
  <sodipodi:namedview
     id="base"
     pagecolor="#ffffff"
     bordercolor="#666666"
     borderopacity="1.0"
     inkscape:pageopacity="0.0"
     inkscape:pageshadow="2"
     inkscape:zoom="2.4543612"
     inkscape:cx="140.51258"
     inkscape:cy="171.41402"
     inkscape:document-units="px"
     inkscape:current-layer="layer1"
     showgrid="true"
     inkscape:window-width="1920"
     inkscape:window-height="1019"
     inkscape:window-x="0"
     inkscape:window-y="32"
     fit-margin-left="1"
     fit-margin-top="1"
     fit-margin-right="1"
     fit-margin-bottom="1"
     inkscape:window-maximized="1"
     showguides="true">
    <inkscape:grid
       type="xygrid"
       id="grid5426" />
  </sodipodi:namedview>
  <defs
     id="defs4">
    <linearGradient
       id="linearGradient3203">
      <stop
         style="stop-color:#333333;stop-opacity:1;"
         offset="0"
         id="stop3205" />
      <stop
         style="stop-color:#606060;stop-opacity:1;"
         offset="1"
         id="stop3207" />
    </linearGradient>
    <linearGradient
       id="linearGradient3195">
      <stop
         style="stop-color:#404040;stop-opacity:1;"
         offset="0"
         id="stop3197" />
      <stop
         style="stop-color:#1a1a1a;stop-opacity:1;"
         offset="1"
         id="stop3199" />
    </linearGradient>
    <linearGradient
       id="linearGradient3187">
      <stop
         style="stop-color:#606060;stop-opacity:1;"
         offset="0"
         id="stop3189" />
      <stop
         style="stop-color:#404040;stop-opacity:1;"
         offset="1"
         id="stop3191" />
    </linearGradient>
    <inkscape:perspective
       sodipodi:type="inkscape:persp3d"
       inkscape:vp_x="0 : 561.25983 : 1"
       inkscape:vp_y="0 : 1066.6667 : 0"
       inkscape:vp_z="793.70078 : 561.25983 : 1"
       inkscape:persp3d-origin="396.85039 : 374.17322 : 1"
       id="perspective10" />
    <clipPath
       id="clipPath2472"
       clipPathUnits="userSpaceOnUse">
      <path
         id="path2474"
         d="m 130.32,642 h 331.92 v 11.04 H 130.32 Z"
         inkscape:connector-curvature="0" />
    </clipPath>
    <inkscape:perspective
       id="perspective2390"
       inkscape:persp3d-origin="396.85039 : 374.17322 : 1"
       inkscape:vp_z="793.70078 : 561.25983 : 1"
       inkscape:vp_y="0 : 1066.6667 : 0"
       inkscape:vp_x="0 : 561.25983 : 1"
       sodipodi:type="inkscape:persp3d" />
    <clipPath
       id="clipPath">
      <path
         id="path3991"
         transform="translate(-0.1900293,428.7894)"
         d="m 519.375,8.375 v 67 c -8.3124,-7.708675 -18.91192,-12.343754 -30.46875,-12.34375 -26.67332,-2e-6 -48.3125,24.61839 -48.3125,54.96875 -10e-6,30.35035 21.63918,54.96876 48.3125,54.96875 11.55683,0 22.15634,-4.63508 30.46875,-12.34375 v 9.53125 h 30.46875 V 8.375 Z m 47.46875,0 v 161.78125 h 30.5 V 8.375 Z m -298.9375,54.0625 c -30.33618,2e-6 -54.96875,25.12026 -54.96875,56.125 1e-5,31.00475 24.63256,56.15625 54.96875,56.15625 30.33618,1e-5 54.9375,-25.1515 54.9375,-56.15625 -10e-6,-31.004741 -24.60133,-56.125 -54.9375,-56.125 z m 113.71875,0 c -30.33617,2e-6 -54.96875,25.12026 -54.96875,56.125 -2e-5,31.00475 24.63256,56.15625 54.96875,56.15625 30.33619,1e-5 54.9375,-25.1515 54.9375,-56.15625 0,-31.004741 -24.60133,-56.125 -54.9375,-56.125 z m 280.21875,0 c -31.30685,2e-6 -56.75,25.77988 -56.75,57.59375 0,31.81388 25.44315,57.625 56.75,57.625 24.51659,1e-5 45.40735,-15.82396 53.3125,-37.96875 H 683.5 c -4.68373,9.44879 -12.62284,15.6875 -21.65625,15.6875 -12.08775,0 -22.30022,-11.15315 -25.28125,-26.25 h 37.5625 v -1.75 h 43.9375 c 0.3018,-2.40763 0.46875,-4.85303 0.46875,-7.34375 -2e-5,-31.813871 -25.38067,-57.59375 -56.6875,-57.59375 z M 94.875,64.15625 c -30.42409,0.33968 -41.02701,14.55616 -43.1875,34.5 h 0.5 v 71.5 h 30.46875 v -71.5 H 83.8125 C 87.42654,91.67994 92.84159,87.25 98.875,87.25 c 5.91375,0 11.22498,4.261773 14.84375,11 v 71.90625 h 30.5 v -71.5 h 0.46875 C 148.30911,91.679939 153.71659,87.25 159.75,87.25 c 6.03341,10e-7 11.44846,4.42994 15.0625,11.40625 h 1.0625 v 71.5 h 30.46875 v -71.5 h 0.59375 c -2.16049,-19.943838 -12.76341,-34.160324 -43.1875,-34.5 -1.29771,-0.01449 -2.62932,-0.0054 -4,0.03125 -11.61263,10e-7 -22.22994,4.954774 -30.4375,13.15625 C 121.10494,69.142273 110.48762,64.1875 98.875,64.1875 c -1.37068,-0.03664 -2.70229,-0.04574 -4,-0.03125 z M 495.5625,84.1875 c 11.37467,-3e-6 20.94908,10.370131 23.8125,24.4375 v 17.53125 c -2.86344,14.06737 -12.43786,24.40625 -23.8125,24.40625 -13.6325,-1e-5 -24.6875,-14.87512 -24.6875,-33.1875 0,-18.312377 11.05498,-33.1875 24.6875,-33.1875 z m 166.28125,0.53125 c 11.46607,2e-6 21.18431,9.99825 24.6875,23.90625 h -49.4375 c 3.51938,-13.907998 13.28392,-23.90625 24.75,-23.90625 z m -393.9375,1.125 c 12.71411,-2e-6 23.03125,14.65618 23.03125,32.71875 0,18.06258 -10.31714,32.75 -23.03125,32.75 -12.71412,-1e-5 -23.0625,-14.68742 -23.0625,-32.75 0,-18.06256 10.34839,-32.71875 23.0625,-32.71875 z m 113.71875,0 c 12.71412,-2e-6 23.03125,14.65618 23.03125,32.71875 -2e-5,18.06258 -10.31714,32.75 -23.03125,32.75 -12.71411,-1e-5 -23.03125,-14.68742 -23.03125,-32.75 0,-18.06256 10.31714,-32.71875 23.03125,-32.71875 z"
         style="fill:#fb9c02;fill-opacity:1;stroke:none"
         inkscape:connector-curvature="0" />
    </clipPath>
    <filter
       id="filter"
       height="2"
       width="2"
       x="-0.5"
       y="-0.5"
       style="color-interpolation-filters:sRGB">
      <feGaussianBlur
         stdDeviation="5.0"
         id="feGaussianBlur4083" />
    </filter>
    <clipPath
       id="clipPathd">
      <path
         sodipodi:nodetypes="ccssscccccccccccsssccsssccssccsccsccccccccscccccsccccccscccccccssccccccsssccsssc"
         transform="translate(-0.1900293,428.7894)"
         style="fill:#fb9c02;fill-opacity:1;stroke:none"
         d="m 519.375,8.375 v 67 c -8.3124,-7.708675 -18.91192,-12.343754 -30.46875,-12.34375 -26.67332,-2e-6 -48.3125,24.61839 -48.3125,54.96875 -10e-6,30.35035 21.63918,54.96876 48.3125,54.96875 11.55683,0 22.15634,-4.63508 30.46875,-12.34375 v 9.53125 h 30.46875 V 8.375 Z m 47.46875,0 v 161.78125 h 30.5 V 8.375 Z m -298.9375,54.0625 c -30.33618,2e-6 -54.96875,25.12026 -54.96875,56.125 1e-5,31.00475 24.63256,56.15625 54.96875,56.15625 30.33618,1e-5 54.9375,-25.1515 54.9375,-56.15625 -10e-6,-31.004741 -24.60133,-56.125 -54.9375,-56.125 z m 113.71875,0 c -30.33617,2e-6 -54.96875,25.12026 -54.96875,56.125 -2e-5,31.00475 24.63256,56.15625 54.96875,56.15625 30.33619,1e-5 54.9375,-25.1515 54.9375,-56.15625 0,-31.004741 -24.60133,-56.125 -54.9375,-56.125 z m 280.21875,0 c -31.30685,2e-6 -56.75,25.77988 -56.75,57.59375 0,31.81388 25.44315,57.625 56.75,57.625 24.51659,1e-5 45.40735,-15.82396 53.3125,-37.96875 H 683.5 c -4.68373,9.44879 -12.62284,15.6875 -21.65625,15.6875 -12.08775,0 -22.30022,-11.15315 -25.28125,-26.25 l 80.9138,-0.5776 c 0.3018,-2.40763 1.05495,-6.02543 1.05495,-8.51615 -2e-5,-31.813871 -25.38067,-57.59375 -56.6875,-57.59375 z M 94.875,64.15625 c -30.42409,0.33968 -41.02701,14.55616 -43.1875,34.5 h 0.5 v 71.5 h 30.46875 v -71.5 H 83.8125 C 87.42654,91.67994 92.84159,87.25 98.875,87.25 c 5.91375,0 11.22498,4.261773 14.84375,11 v 71.90625 h 30.5 v -71.5 h 0.46875 C 148.30911,91.679939 153.71659,87.25 159.75,87.25 c 6.03341,10e-7 11.44846,4.42994 15.0625,11.40625 h 1.0625 v 71.5 h 30.46875 v -71.5 h 0.59375 c -2.16049,-19.943838 -12.76341,-34.160324 -43.1875,-34.5 -1.29771,-0.01449 -2.62932,-0.0054 -4,0.03125 -11.61263,10e-7 -22.22994,4.954774 -30.4375,13.15625 C 121.10494,69.142273 110.48762,64.1875 98.875,64.1875 c -1.37068,-0.03664 -2.70229,-0.04574 -4,-0.03125 z M 495.5625,84.1875 c 11.37467,-3e-6 20.94908,10.370131 23.8125,24.4375 v 17.53125 c -2.86344,14.06737 -12.43786,24.40625 -23.8125,24.40625 -13.6325,-1e-5 -24.6875,-14.87512 -24.6875,-33.1875 0,-18.312377 11.05498,-33.1875 24.6875,-33.1875 z m 166.28125,0.53125 c 11.46607,2e-6 21.18431,9.99825 24.6875,23.90625 h -49.4375 c 3.51938,-13.907998 13.28392,-23.90625 24.75,-23.90625 z m -393.9375,1.125 c 12.71411,-2e-6 23.03125,14.65618 23.03125,32.71875 0,18.06258 -10.31714,32.75 -23.03125,32.75 -12.71412,-1e-5 -23.0625,-14.68742 -23.0625,-32.75 0,-18.06256 10.34839,-32.71875 23.0625,-32.71875 z m 113.71875,0 c 12.71412,-2e-6 23.03125,14.65618 23.03125,32.71875 -2e-5,18.06258 -10.31714,32.75 -23.03125,32.75 -12.71411,-1e-5 -23.03125,-14.68742 -23.03125,-32.75 0,-18.06256 10.31714,-32.71875 23.03125,-32.71875 z"
         id="path2586"
         inkscape:connector-curvature="0" />
    </clipPath>
    <filter
       y="-0.5"
       x="-0.5"
       width="2"
       height="2"
       id="filterK"
       style="color-interpolation-filters:sRGB">
      <feGaussianBlur
         id="feGaussianBlur4147"
         stdDeviation="5.0" />
    </filter>
  </defs>
  <metadata
     id="metadata7">
    <rdf:RDF>
      <cc:Work
         rdf:about="">
        <dc:format>image/svg+xml</dc:format>
        <dc:type
           rdf:resource="http://purl.org/dc/dcmitype/StillImage" />
        <dc:title>Moodle</dc:title>
        <cc:license
           rdf:resource="http://creativecommons.org/licenses/by-sa/4.0/" />
        <dc:subject>
          <rdf:Bag>
            <rdf:li>Moodle</rdf:li>
          </rdf:Bag>
        </dc:subject>
        <dc:creator>
          <cc:Agent>
            <dc:title>Christian-Maximilian Steier</dc:title>
          </cc:Agent>
        </dc:creator>
      </cc:Work>
      <cc:License
         rdf:about="http://creativecommons.org/licenses/by-sa/4.0/">
        <cc:permits
           rdf:resource="http://creativecommons.org/ns#Reproduction" />
        <cc:permits
           rdf:resource="http://creativecommons.org/ns#Distribution" />
        <cc:requires
           rdf:resource="http://creativecommons.org/ns#Notice" />
        <cc:requires
           rdf:resource="http://creativecommons.org/ns#Attribution" />
        <cc:permits
           rdf:resource="http://creativecommons.org/ns#DerivativeWorks" />
        <cc:requires
           rdf:resource="http://creativecommons.org/ns#ShareAlike" />
      </cc:License>
    </rdf:RDF>
  </metadata>
  <g
     inkscape:label="Ebene 1"
     inkscape:groupmode="layer"
     id="layer1"
     transform="translate(166.89083,-355.77543)">
    <ellipse
       style="fill:#000000;fill-opacity:1;stroke-width:2.13751435"
       id="path3811"
       cx="-14.643059"
       cy="508.02673"
       rx="151.18109"
       ry="151.18465" />
    <path
       inkscape:connector-curvature="0"
       style="fill:#ffffff;fill-opacity:1;stroke:#fdfdfd;stroke-width:3.0085094;stroke-opacity:1"
       d="m 51.170553,578.95418 v -68.594 c 0,-14.44085 -6.017019,-21.66128 -17.750206,-21.66128 -11.733186,0 -17.750205,7.22043 -17.750205,21.66128 v 68.594 H -19.52942 v -68.594 c 0,-14.44085 -5.716168,-21.66128 -17.449355,-21.66128 -11.733186,0 -17.750206,7.22043 -17.750206,21.66128 v 68.594 h -34.898708 v -72.50511 c 0,-15.04248 5.114466,-26.17396 15.644249,-33.99612 9.025528,-6.91957 21.661268,-10.2289 37.004665,-10.2289 15.9451,0 27.3774366,3.91106 34.8987097,12.03401 6.3178698,-8.12295 18.0510583,-12.03401 35.1995623,-12.03401 15.644248,0 27.979137,3.30933 37.004666,10.2289 10.529781,7.82216 15.644247,18.95364 15.644247,33.99612 v 72.80596 H 51.170553 Z"
       id="path4292" />
    <path
       inkscape:connector-curvature="0"
       style="fill:#000000;fill-opacity:1;stroke:#ffffff;stroke-width:5.009;stroke-opacity:1;stroke-miterlimit:4;stroke-dasharray:none"
       d="m -86.318329,475.16064 c -1.203404,6.91958 -2.105956,13.53826 -3.30936,20.4578 31.589349,10.83063 62.576996,1.50423 79.123798,-26.7757 -21.059567,-24.36889 -44.52594,-4.21198 -75.814438,6.3179"
       id="path4386" />
    <path
       inkscape:connector-curvature="0"
       style="fill:none;fill-opacity:1;stroke-width:3.0085094"
       d="m -48.711961,483.28358 c -14.440845,-3.00847 -30.085095,4.5128 -40.915728,12.33486 -6.919572,-50.54295 24.368927,-49.3395 65.284654,-36.70374 -2.707658,12.33487 -7.220423,28.88168 -15.042547,38.80973 -0.300882,-6.61868 -3.309361,-11.13151 -9.326379,-14.44085"
       id="path4393" />
    <path
       inkscape:connector-curvature="0"
       style="fill:#030303;fill-opacity:1;stroke:#ffffff;stroke-width:5.009;stroke-opacity:1;stroke-miterlimit:4;stroke-dasharray:none"
       d="m -132.95025,477.16064 c 52.94979,-31.89026 82.734034,-37.90722 144.408478,-44.22512 -71.602524,56.56002 -73.407631,44.22512 -144.408478,44.22512"
       id="path4410" />
    <line
       style="fill:none;stroke:none;stroke-width:1.5042547;stroke-opacity:1"
       y2="472.453"
       x2="-45.402599"
       y1="431.23651"
       x1="11.458212"
       id="line4412" />
    <path
       inkscape:connector-curvature="0"
       style="opacity:0.23000004;fill:#231f20;stroke-width:3.0085094"
       d="m -56.233234,453.19852 c 0.601732,6.61869 -0.902524,-6.31793 0,0"
       id="path4414" />
    <line
       style="fill:none;fill-opacity:1;stroke:none;stroke-width:1.5009383;stroke-miterlimit:4;stroke-dasharray:none;stroke-opacity:1"
       y2="472.453"
       x2="-45.402599"
       y1="475.16064"
       x1="-132.95024"
       id="line4416" />
    <path
       inkscape:connector-curvature="0"
       style="fill:none;stroke:#fffcfa;stroke-width:3.504;stroke-opacity:1;stroke-miterlimit:4;stroke-dasharray:none"
       d="m -61.648552,453.80013 c -15.042547,4.21197 -64.382108,15.04261 -64.983828,21.36051 -1.50423,11.73316 -0.30086,30.38595 -0.30086,30.38595"
       id="path4422" />
    <path
       inkscape:connector-curvature="0"
       style="fill:#fffcfa;fill-opacity:1;stroke-width:2.2;stroke-miterlimit:4;stroke-dasharray:none;stroke:#fffcfa;stroke-opacity:1"
       d="m -122.42044,550.37334 c -5.41532,-13.53835 -12.03404,-28.5808 -4.21194,-47.23359 5.11449,17.44929 4.21194,30.6868 4.21194,47.23359"
       id="path4424" />
    <ellipse
       style="fill:#6d6e70;stroke:#fefefe;stroke-width:3.00849628;stroke-opacity:1"
       rx="2.4067969"
       transform="rotate(-19.609116)"
       ry="1.2033985"
       cy="405.22852"
       cx="-212.02831"
       id="ellipse4426" />
  </g>
</svg>
